<svg width="7" height="3" viewBox="0 0 7 3" fill="none" xmlns="http://www.w3.org/2000/svg">
<path d="M0.5 0.625C0.5 0.525544 0.539509 0.430161 0.609835 0.359835C0.680161 0.289509 0.775544 0.25 0.875 0.25C0.974456 0.25 1.06984 0.289509 1.14016 0.359835C1.21049 0.430161 1.25 0.525544 1.25 0.625V2.5C1.25 2.59946 1.21049 2.69484 1.14016 2.76516C1.06984 2.83549 0.974456 2.875 0.875 2.875C0.775544 2.875 0.680161 2.83549 0.609835 2.76516C0.539509 2.69484 0.5 2.59946 0.5 2.5V0.625ZM5.75 0.625C5.75 0.525544 5.78951 0.430161 5.85983 0.359835C5.93016 0.289509 6.02554 0.25 6.125 0.25C6.22446 0.25 6.31984 0.289509 6.39017 0.359835C6.46049 0.430161 6.5 0.525544 6.5 0.625V2.5C6.5 2.59946 6.46049 2.69484 6.39017 2.76516C6.31984 2.83549 6.22446 2.875 6.125 2.875C6.02554 2.875 5.93016 2.83549 5.85983 2.76516C5.78951 2.69484 5.75 2.59946 5.75 2.5V0.625Z" fill="#B9B9B9"/>
</svg>
