<svg width="22" height="15" viewBox="0 0 22 15" fill="none" xmlns="http://www.w3.org/2000/svg">
<path d="M10.0846 15.3327H5.95964C4.56936 15.3327 3.38166 14.8514 2.39655 13.8889C1.41083 12.9264 0.917969 11.75 0.917969 10.3598C0.917969 9.1681 1.277 8.10629 1.99505 7.17435C2.71311 6.2424 3.65269 5.64657 4.8138 5.38685C5.19575 3.98129 5.95964 2.8431 7.10547 1.97227C8.2513 1.10143 9.54991 0.666016 11.0013 0.666016C12.7888 0.666016 14.305 1.28843 15.5498 2.53327C16.7952 3.77871 17.418 5.29518 17.418 7.08268C18.4721 7.2049 19.3469 7.65927 20.0424 8.44577C20.7372 9.23288 21.0846 10.1535 21.0846 11.2077C21.0846 12.3535 20.6837 13.3276 19.882 14.13C19.0796 14.9318 18.1055 15.3327 16.9596 15.3327H11.918V8.77852L13.3846 10.1993L14.668 8.91602L11.0013 5.24935L7.33464 8.91602L8.61797 10.1993L10.0846 8.77852V15.3327Z" fill="black"/>
</svg>
